<?xml version="1.0" encoding="utf-8"?>
<!-- Generator: Adobe Illustrator 26.3.1, SVG Export Plug-In . SVG Version: 6.00 Build 0)  -->
<svg version="1.1" id="Layer_1" xmlns="http://www.w3.org/2000/svg" xmlns:xlink="http://www.w3.org/1999/xlink" x="0px" y="0px"
	 viewBox="0 0 413.7 220.8" style="enable-background:new 0 0 413.7 220.8;" xml:space="preserve">
<style type="text/css">
	.st0{fill:#9AAAD0;}
	.st1{fill:#383839;}
	.st2{fill:#515254;}
	.st3{fill:#7F8AFF;}
	.st4{fill:#353400;}
</style>
<path d="M296,73.9l-55.2,55.2c-2.5,2.5-6.6,2.5-9.1,0l-15.4-15.4c-2.5-2.5-2.5-6.6,0-9.1l55.2-55.2c2.5-2.5,6.6-2.5,9.1,0L296,64.8
	C298.5,67.3,298.5,71.4,296,73.9z"/>
<path d="M159,124.1l-51.9-57.2c-2.5-2.8-2.3-7,0.5-9.5l15.6-14.2c2.8-2.5,7-2.3,9.5,0.5l51.9,57.2c2.5,2.8,2.3,7-0.5,9.5l-15.6,14.2
	C165.8,127.1,161.5,126.9,159,124.1z"/>
<circle cx="97.3" cy="122.7" r="61.1"/>
<circle cx="303.3" cy="122.6" r="61.2"/>
<circle class="st0" cx="97.2" cy="123" r="47"/>
<circle class="st0" cx="303.3" cy="122.6" r="47.1"/>
<path d="M174.9,58.2l-37.2-8c-1.5-0.3-2.6,1.5-1.6,2.6l38.6,46.1c1,1.2,2.9,0.5,2.9-1.1l-1.3-38.1C176.2,59,175.7,58.4,174.9,58.2z"
	/>
<path d="M227.5,58.4l-4.8,38.5c-0.2,1.4,1.5,2.2,2.5,1.2l43.3-43.3c1-1,0.2-2.6-1.2-2.5l-38.5,4.8C228.1,57.3,227.6,57.8,227.5,58.4
	z"/>
<circle cx="200.6" cy="62.4" r="33.4"/>
<circle class="st1" cx="200.6" cy="62.4" r="25"/>
<g>
	<g>
		<path class="st2" d="M132.2,57.1c7.3,8.8,14.5,17.6,21.8,26.5c0.9,1,2.6,0.9,3.5,0c1-1,0.9-2.5,0-3.5
			c-7.3-8.8-14.5-17.6-21.8-26.5c-0.9-1-2.6-0.9-3.5,0C131.2,54.6,131.4,56.1,132.2,57.1L132.2,57.1z"/>
	</g>
</g>
<g>
	<g>
		<path class="st2" d="M273.1,53.4c-8.4,9.7-17.2,19.1-26.4,28.1c-2.3,2.2,1.2,5.8,3.5,3.5c9.2-9,18-18.4,26.4-28.1
			c0.9-1,1-2.5,0-3.5C275.8,52.5,274,52.4,273.1,53.4L273.1,53.4z"/>
	</g>
</g>
<g>
	<g>
		<path class="st2" d="M193.7,40.4c-4.5,2.9-9,6.2-11.7,10.9c-2.8,4.7-3.5,10.4-1.1,15.3c0.6,1.2,2.3,1.5,3.4,0.9
			c1.2-0.7,1.5-2.2,0.9-3.4c-1.7-3.5-0.5-7.8,1.5-10.9c2.3-3.6,6-6.2,9.5-8.5C198.9,43,196.4,38.6,193.7,40.4L193.7,40.4z"/>
	</g>
</g>
<g>
	<path class="st3" d="M93.1,170.1c-1.5,0-8.8-1.6-10.1-2c-2.8-0.9-6.9-2.6-9.4-4.2c-5.2-3.1-3.2-1.4-7.3-5.3
		c1.7-2.5,1.2-1.4,3.7-3.1c2.5-1.7,4.9-3.9,5.6-6.8c0.3-1.2,0.3-2.5,0.3-3.7c0-6.5,0.5-13.3,3.4-19.1c1.2-2.4,2.9-4.7,3.8-7.3
		c1.4-4.2,0.7-8.7,1-13.1c0.5-7.2,3.9-14.1,9.3-18.9c2-1.7,4.2-3.3,5.6-5.5c1.4-2.2,0.7-3.4-1.2-5.2l3.2,0.1c3.6,0.1,2.4,0.6,6,1.1
		c0.6,0.1,3.9,1,4.5,1.2c0.5,0.2,1.8,0.5,2.3,0.7c2.2,1,1.2,0.6,3.5,1.6l2.9,1.4c0.5,0.5,0.8-0.1,1.5,1.2c1.5,2.7,0.3,6.2-1.7,8.7
		c-1.9,2.5-4.5,4.4-6.3,6.9c-3.3,4.7-3.5,10.8-3.3,16.6c0.1,1.5,0.1,3,0.5,4.4c0.3,1,0.8,2,1,3c0.4,1.7,0.3,3.4,0,5.1
		c-0.8,3.8-2.9,7.2-5.8,9.7c-2.2,1.9-3.8,6.5-5.7,8.6c-2.3,2.7-4,3.1-4.6,6.6c-0.4,2.4-0.6,4.9-0.1,7.3c0.5,2.5,0.6,7.4,0.5,10"/>
</g>
<g id="Layer_2_00000025434358247915715740000003389427801091736706_">
</g>
<g>
	<path class="st4" d="M87.4,169.1c-0.9,0-0.7,0-5.5-1.4c-1.5-0.4-3-1.1-4.8-2c-1.2-0.6-2.6-1.3-5.7-3.1c1.2-2.4,5-6.3,6.5-8
		s3-3.8,3.8-6.7c0.3-1.2,0.5-2.4,0.7-3.7c0.9-6.4,2.1-13.1,4.5-18.8c1-2.4,2.1-4.6,2.9-7.2c1.3-4.1,1.6-8.6,2.4-12.9
		c1.3-7.1,4-13.9,7.4-18.5c1.2-1.7,2.6-3.2,3.6-5.4c1-2.2,1.3-3.2,0.6-5l0.7,0.1c1.8,0.1,1.3,0,3.1,0.5c0.3,0.1,1.4,0.3,1.7,0.4
		c0.4,0.1,1.4,0.4,1.4,0.4s0.7,0.2,2.1,0.8l3.1,1c0.2,0.5,2.4,0.8,3.3,1.7c1.8,2.1-5.7,8.5-7,10.9c-1.3,2.4-2.9,4.3-4.2,6.8
		c-2.3,4.6-3.3,10.7-4,16.3c-0.2,1.5-0.4,3-0.4,4.4c0,1,0.1,2,0.1,3c0,1.6-0.3,3.4-0.8,5c-0.9,3.7-2.5,7.1-4.3,9.6
		c-1.4,1.8-2.9,3.1-4.1,5.3c-1.5,2.6-2.5,6.2-3.2,9.6c-0.5,2.4-1,4.8-1.1,7.2c-0.1,2.5-0.8,7.5-1.2,10"/>
</g>
<g>
	<path class="st3" d="M299,169.6c-1.5,0-8.8-1.6-10.1-2c-2.8-0.9-6.9-2.6-9.4-4.2c-5.2-3.1-3.2-1.4-7.3-5.3c1.7-2.5,1.2-1.4,3.7-3.1
		c2.5-1.7,4.9-3.9,5.6-6.8c0.3-1.2,0.3-2.5,0.3-3.7c0-6.5,0.5-13.3,3.4-19.1c1.2-2.4,2.9-4.7,3.8-7.3c1.4-4.2,0.7-8.7,1-13.1
		c0.5-7.2,3.9-14.1,9.3-18.9c2-1.7,4.2-3.3,5.6-5.5c1.4-2.2,0.7-3.4-1.2-5.2l3.2,0.1c3.6,0.1,2.4,0.6,6,1.1c0.6,0.1,3.9,1,4.5,1.2
		c0.5,0.2,1.8,0.5,2.3,0.7c2.2,1,1.2,0.6,3.5,1.6l2.9,1.4c0.5,0.5,0.8-0.1,1.5,1.2c1.5,2.7,0.3,6.2-1.7,8.7
		c-1.9,2.5-4.5,4.4-6.3,6.9c-3.3,4.7-3.5,10.8-3.3,16.6c0.1,1.5,0.1,3,0.5,4.4c0.3,1,0.8,2,1,3c0.4,1.7,0.3,3.4,0,5.1
		c-0.8,3.8-2.9,7.2-5.8,9.7c-2.2,1.9-3.8,6.5-5.7,8.6c-2.3,2.7-4,3.1-4.6,6.6c-0.4,2.4-0.6,4.9-0.1,7.3c0.5,2.5,0.6,7.4,0.5,10"/>
</g>
<g>
	<path class="st4" d="M293.3,168.6c-0.9,0-0.7,0-5.5-1.4c-1.5-0.4-3-1.1-4.8-2c-1.2-0.6-2.6-1.3-5.7-3.1c1.2-2.4,5-6.3,6.5-8
		c1.5-1.7,3-3.8,3.8-6.7c0.3-1.2,0.5-2.4,0.7-3.7c0.9-6.4,2.1-13.1,4.5-18.8c1-2.4,2.1-4.6,2.9-7.2c1.3-4.1,1.6-8.6,2.4-12.9
		c1.3-7.1,4-13.9,7.4-18.5c1.2-1.7,2.6-3.2,3.6-5.4c1-2.2,1.3-3.2,0.6-5l0.7,0.1c1.8,0.1,1.3,0,3.1,0.5c0.3,0.1,1.4,0.3,1.7,0.4
		c0.4,0.1,1.4,0.4,1.4,0.4s0.7,0.2,2.1,0.8l3.1,1c0.2,0.5,2.4,0.8,3.3,1.7c1.8,2.1-5.7,8.5-7,10.9c-1.3,2.4-2.9,4.3-4.2,6.8
		c-2.3,4.6-3.3,10.7-4,16.3c-0.2,1.5-0.4,3-0.4,4.4c0,1,0.1,2,0.1,3c0,1.6-0.3,3.4-0.8,5c-0.9,3.7-2.5,7.1-4.3,9.6
		c-1.4,1.8-2.9,3.1-4.1,5.3c-1.5,2.6-2.5,6.2-3.2,9.6c-0.5,2.4-1,4.8-1.1,7.2c-0.1,2.5-0.8,7.5-1.2,10"/>
</g>
</svg>
