<?xml version="1.0" encoding="utf-8"?>
<!-- Generator: Adobe Illustrator 26.0.3, SVG Export Plug-In . SVG Version: 6.00 Build 0)  -->
<svg version="1.1" xmlns="http://www.w3.org/2000/svg" xmlns:xlink="http://www.w3.org/1999/xlink" x="0px" y="0px"
	 viewBox="0 0 792 612" style="enable-background:new 0 0 792 612;" xml:space="preserve">
<style type="text/css">
	.st0{fill:#9AAAD0;}
	.st1{fill:#FFFFFF;}
	.st2{fill:#383839;}
	.st3{fill:#515254;}
</style>
<g id="Layer_1">
	<path d="M487.21,337.97l-55.18,55.18c-2.52,2.52-6.6,2.52-9.12,0l-15.41-15.41c-2.52-2.52-2.52-6.6,0-9.12l55.18-55.18
		c2.52-2.52,6.6-2.52,9.12,0l15.41,15.41C489.73,331.37,489.73,335.45,487.21,337.97z"/>
	<path d="M350.2,388.2l-51.94-57.25c-2.51-2.77-2.3-7.04,0.46-9.55l15.64-14.19c2.77-2.51,7.04-2.3,9.55,0.46l51.94,57.25
		c2.51,2.77,2.3,7.04-0.46,9.55l-15.64,14.19C356.98,391.18,352.71,390.97,350.2,388.2z"/>
	<circle cx="288.35" cy="387.01" r="61.1"/>
	<circle cx="494.46" cy="386.61" r="61.17"/>
	<circle class="st0" cx="288.35" cy="387.01" r="47.05"/>
	<circle class="st0" cx="494.46" cy="386.61" r="47.11"/>
	<g>
		<g>
			<path class="st1" d="M480.44,350.8c-7.08,0.93-12.95,5.38-16.57,11.45c-4.14,6.94-4.93,15.33-4.77,23.25c0.07,3.21,5.07,3.22,5,0
				c-0.14-6.8,0.34-14.01,3.71-20.09c2.59-4.66,7.14-8.89,12.62-9.62c1.34-0.18,2.5-1.02,2.5-2.5
				C482.94,352.08,481.79,350.62,480.44,350.8L480.44,350.8z"/>
		</g>
	</g>
	<g>
		<g>
			<path class="st1" d="M275.65,352.34c-7.12,0.94-13.02,5.44-16.63,11.57c-4.07,6.92-4.85,15.23-4.69,23.1c0.07,3.21,5.07,3.22,5,0
				c-0.14-6.74,0.33-13.88,3.63-19.92c2.58-4.72,7.14-9.01,12.68-9.74c1.34-0.18,2.5-1.02,2.5-2.5
				C278.15,353.63,277,352.17,275.65,352.34L275.65,352.34z"/>
		</g>
	</g>
	<path d="M366.13,322.29l-37.23-8c-1.52-0.33-2.59,1.45-1.59,2.64l38.56,46.06c1,1.19,2.93,0.45,2.88-1.1l-1.33-38.06
		C367.39,323.08,366.86,322.44,366.13,322.29z"/>
	<path d="M418.68,322.49l-4.77,38.51c-0.17,1.37,1.49,2.18,2.46,1.2l43.28-43.28c0.98-0.98,0.17-2.63-1.2-2.46l-38.51,4.77
		C419.28,321.31,418.76,321.83,418.68,322.49z"/>
	<circle cx="391.84" cy="326.46" r="33.41"/>
	<circle class="st2" cx="391.84" cy="326.46" r="25.02"/>
	<g>
		<g>
			<path class="st2" d="M324.5,323.45c5.98,6.36,11.96,12.73,17.94,19.09c0.92,0.98,2.6,0.93,3.54,0c0.98-0.98,0.93-2.55,0-3.54
				c-5.98-6.36-11.96-12.73-17.94-19.09c-0.92-0.98-2.6-0.93-3.54,0C323.52,320.9,323.58,322.46,324.5,323.45L324.5,323.45z"/>
		</g>
	</g>
	<g>
		<g>
			<path class="st3" d="M323.43,321.19c7.26,8.82,14.53,17.64,21.79,26.45c0.86,1.04,2.65,0.89,3.54,0c1.03-1.03,0.86-2.49,0-3.54
				c-7.26-8.82-14.53-17.64-21.79-26.45c-0.86-1.04-2.65-0.89-3.54,0C322.39,318.69,322.56,320.14,323.43,321.19L323.43,321.19z"/>
		</g>
	</g>
	<g>
		<g>
			<path class="st3" d="M464.33,317.48c-8.39,9.73-17.18,19.11-26.37,28.09c-2.3,2.25,1.23,5.79,3.54,3.54
				c9.18-8.99,17.98-18.36,26.37-28.09c0.88-1.02,1-2.53,0-3.54C466.96,316.58,465.21,316.45,464.33,317.48L464.33,317.48z"/>
		</g>
	</g>
	<g>
		<g>
			<path class="st3" d="M384.88,304.44c-4.49,2.88-8.96,6.2-11.73,10.87c-2.76,4.66-3.46,10.37-1.13,15.33
				c0.57,1.22,2.33,1.54,3.42,0.9c1.25-0.73,1.47-2.19,0.9-3.42c-1.66-3.53-0.52-7.78,1.51-10.9c2.34-3.61,5.99-6.17,9.55-8.46
				C390.1,307.03,387.6,302.7,384.88,304.44L384.88,304.44z"/>
		</g>
	</g>
</g>
<g id="Layer_2">
</g>
</svg>
